<?xml version="1.0" standalone="no"?>
<svg id="logov3-Page%201" viewBox="0 0 154 154" style="background-color:#ffffff00" version="1.1"
	xmlns="http://www.w3.org/2000/svg" xmlns:xlink="http://www.w3.org/1999/xlink"
	xml:space="preserve"
	x="0px" y="0px" width="154px" height="154px"
>
	<g id="Layer%201">
		<g>
			<path d="M 150.3984 5.375 C 150.3984 6.125 149.3984 10.125 149.3984 10.875 C 149.3984 11.375 149.3984 15.875 149.3984 21.375 L 151.6484 39.875 C 151.3984 41.875 150.3984 43.375 148.3984 45.375 C 148.8984 45.625 149.6484 45.875 150.1484 46.375 C 150.6484 46.875 151.6484 48.375 151.6484 49.125 L 151.6484 64.625 C 151.3984 66.125 149.3984 67.625 148.1484 69.125 C 148.6484 69.625 149.6484 69.875 150.3984 70.875 C 151.8984 72.625 151.6484 73.125 151.6484 74.375 C 151.6484 75.125 151.3984 88.375 150.1484 95.125 C 149.8984 97.125 147.8984 99.125 147.3984 101.375 C 146.6484 104.375 145.8984 110.875 145.8984 111.625 L 145.8984 131.625 L 147.1484 147.625 C 147.3984 150.875 144.8984 152.875 142.3984 152.875 C 141.6484 152.875 136.6484 151.125 134.1484 150.625 C 122.1484 147.625 109.6484 146.625 97.6484 145.875 L 71.1484 146.125 C 60.8984 146.875 50.3984 147.875 40.3984 149.125 C 30.8984 150.125 12.1484 153.125 11.3984 153.125 C 7.8984 153.125 6.8984 149.875 6.8984 148.125 C 6.8984 147.625 8.1484 139.625 8.6484 135.375 C 8.8984 133.625 8.8984 131.625 9.1484 129.625 L 9.1484 117.625 C 8.8984 113.875 8.6484 109.625 8.1484 105.875 C 6.3984 90.625 2.3984 60.125 2.3984 59.625 L 2.3984 54.375 C 2.6484 52.375 2.6484 50.125 2.8984 48.125 C 3.1484 46.125 3.3984 43.875 3.6484 41.875 C 4.1484 39.625 4.3984 36.875 5.1484 34.625 C 5.3984 34.125 18.6484 20.375 22.6484 20.375 C 24.1484 20.375 26.6484 21.125 27.1484 23.625 C 27.6484 22.125 27.8984 20.125 28.8984 18.875 C 29.6484 17.875 30.6484 17.375 31.8984 17.125 C 37.8984 15.625 44.6484 14.125 51.1484 12.875 C 51.6484 12.625 52.8984 12.875 53.8984 12.875 C 55.1484 11.875 56.6484 10.875 58.1484 10.875 C 58.6484 10.875 71.6484 11.875 72.3984 11.875 C 84.6484 11.875 92.3984 9.125 106.3984 5.875 C 109.1484 5.125 137.8984 0.875 145.3984 0.875 C 148.6484 0.875 150.3984 3.125 150.3984 5.375 ZM 140.1484 10.625 L 140.1484 20.625 L 142.1484 38.125 C 138.8984 42.125 132.6484 45.125 132.6484 49.625 C 132.6484 51.125 134.6484 54.375 136.6484 54.375 L 142.3984 54.375 L 142.3984 61.875 C 139.8984 64.125 130.6484 67.875 130.6484 72.625 C 130.6484 79.375 139.8984 77.375 142.1484 78.125 L 142.1484 80.625 C 141.8984 84.625 142.1484 88.625 141.1484 92.625 C 140.6484 94.625 139.1484 96.625 138.6484 98.625 C 138.6484 98.625 136.6484 110.125 136.6484 112.625 L 136.6484 130.125 L 137.3984 142.125 C 132.3984 140.375 110.1484 136.875 101.3984 136.875 L 71.6484 136.875 C 53.3984 137.625 35.1484 140.625 16.8984 143.125 C 17.3984 139.875 17.8984 136.375 18.1484 133.125 L 18.1484 113.625 C 17.3984 106.125 16.6484 98.125 15.6484 90.625 C 14.3984 80.875 11.6484 61.375 11.6484 60.875 L 11.6484 52.875 C 11.8984 51.375 11.8984 49.625 12.1484 48.125 C 12.1484 47.375 12.3984 46.375 12.3984 45.375 C 12.6484 44.875 12.6484 44.125 12.6484 43.375 C 12.8984 42.125 13.1484 40.625 13.3984 39.125 C 15.6484 37.125 18.1484 34.875 20.3984 33.125 C 22.1484 36.125 21.8984 48.375 28.1484 48.375 C 32.1484 48.375 33.6484 43.875 33.6484 40.625 C 34.1484 38.375 34.6484 35.875 34.8984 33.625 C 35.1484 32.375 35.3984 30.875 35.6484 29.375 C 35.8984 28.125 36.1484 26.875 36.3984 25.625 C 40.6484 24.625 45.1484 23.625 49.6484 22.625 C 50.8984 26.125 51.6484 30.625 55.6484 30.625 C 61.3984 30.625 60.3984 23.125 61.6484 20.625 L 72.1484 21.125 C 72.8984 21.125 73.8984 20.875 79.1484 20.875 C 88.8984 20.625 98.6484 16.875 108.3984 14.875 C 118.3984 12.625 128.1484 11.875 138.3984 10.625 L 140.1484 10.625 Z" fill="#212327"/>
			<g>
				<path d="M 9.3696 36.4181 C 9.3696 36.4181 5.6706 51.9595 7.5819 65.4473 C 11.7239 94.6773 16.7346 123.0163 11.3462 148.6443 C 11.3462 148.6443 35.3549 145.2289 52.9928 143.2727 C 112.0635 136.7213 142.9082 148.6443 142.9082 148.6443 C 142.9082 148.6443 137.8597 103.2744 146.0556 94.4012 L 147.302 73.6929 L 135.2537 72.8646 L 147.302 64.1672 L 147.302 49.6714 L 137.331 49.6714 L 147.302 40.1456 C 147.302 40.1456 142.8956 14.9191 146.0556 5.3557 C 146.0556 5.3557 114.4985 7.514 96.4072 13.0738 C 78.3158 18.6337 57.9783 15.2957 57.9783 15.2957 L 55.901 26.064 L 52.9928 17.1594 L 32.4276 21.7152 L 28.4807 43.8731 L 22.872 24.6144 L 9.3696 36.4181 Z" fill="#ffffff"/>
				<path d="M 143.1806 44.0843 L 147.302 40.1456 C 147.302 40.1456 142.8956 14.9191 146.0556 5.3557 C 146.0556 5.3557 142.604 5.5794 139.6958 5.915 C 141.0931 16.4153 142.5676 29.6121 143.1806 44.0843 ZM 143.324 67.0394 L 147.302 64.1672 L 147.302 49.6714 L 143.3717 49.6714 C 143.5218 55.4192 143.5236 61.254 143.324 67.0394 ZM 13.3289 134.2998 C 12.9705 139.165 12.3332 143.9499 11.3462 148.6443 C 11.3462 148.6443 35.3549 145.2289 52.9928 143.2727 C 112.0635 136.7213 142.9082 148.6443 142.9082 148.6443 C 142.9082 148.6443 137.7464 106.8262 146.0556 94.4012 L 147.302 73.6929 L 143.0186 73.3989 C 141.2232 102.32 133.77 128.7002 113.6498 134.9894 C 82.6065 144.693 40.2343 139.4509 13.3289 134.2998 Z" fill="#f0e9e3"/>
				<path d="M 62.5852 74.0435 C 62.5852 74.0435 49.8913 50.997 28.6881 73.8596 C 28.6881 73.8596 22.771 75.5811 28.519 62.1703 C 34.6763 47.8044 46.7451 49.2571 46.7451 49.2571 C 46.7451 49.2571 65.1894 47.526 67.9595 70.5377 C 67.9595 70.5377 68.9075 77.2448 62.5852 74.0435 Z" fill="#313232"/>
				<path d="M 117.8404 74.0428 C 117.8404 74.0428 105.5749 51.8721 83.9599 73.8507 C 83.9599 73.8507 78.0271 75.5811 83.775 62.1703 C 89.9324 47.8044 102.0012 49.2571 102.0012 49.2571 C 102.0012 49.2571 120.4455 47.5259 123.2156 70.5388 C 123.2156 70.5388 124.1631 77.2443 117.8404 74.0428 Z" fill="#313232"/>
				<path d="M 33.4662 97.7145 C 33.4662 97.7145 69.3342 114.8334 117.3889 98.1805 C 117.3889 98.1805 79.0824 168.2639 33.4662 97.7145 Z" stroke="#ffffff" stroke-width="1" fill="#313232"/>
				<path d="M 76.0943 115.0671 C 75.4872 115.1205 74.2716 115.1255 73.6645 115.0703 C 69.3579 114.6789 54.8567 112.9807 50.6614 107.5903 C 50.2855 107.1074 50.6069 106.6732 51.2063 106.7851 C 56.6302 107.7978 79.2274 111.61 92.9771 107.6532 C 93.5631 107.4845 94.7403 107.1732 95.3402 107.0637 C 96.6741 106.8201 98.8128 106.4623 100.1098 106.4124 C 100.6764 106.3906 100.9839 107.2592 100.5999 107.7336 C 99.0263 109.6775 93.6883 113.5216 76.0943 115.0671 Z" stroke="#ffffff" stroke-width="1" fill="#fdfdfe"/>
				<path id="Ellipse" d="M 31.1458 103.6846 C 29.4359 101.98 30.1632 98.4272 32.7093 95.7736 C 35.2103 93.1671 38.5767 92.3638 40.2871 93.9552 C 42.0183 95.5659 41.4433 99.0546 38.9429 101.7738 C 36.3963 104.5433 32.8774 105.4108 31.1458 103.6846 Z" fill="#414343"/>
				<path id="Ellipse2" d="M 119.2917 105.3413 C 121.0016 103.6367 120.2742 100.0838 117.7281 97.4303 C 115.2272 94.8238 111.8607 94.0205 110.1504 95.6118 C 108.4192 97.2226 108.9942 100.7113 111.4946 103.4305 C 114.0412 106.2 117.5601 107.0675 119.2917 105.3413 Z" fill="#414343"/>
			</g>
		</g>
	</g>
</svg>